<svg id="Capa_1" data-name="Capa 1" xmlns="http://www.w3.org/2000/svg" viewBox="0 0 728 224"><defs><style>.cls-1{fill:#fff;}</style></defs><title>pacheco</title><path class="cls-1" d="M39.5,106.66a17.72,17.72,0,0,1,6.78,1.16,12.57,12.57,0,0,1,4.55,3.06,11.88,11.88,0,0,1,2.56,4.34,16.31,16.31,0,0,1,0,10.09,11.84,11.84,0,0,1-2.56,4.37,12.57,12.57,0,0,1-4.55,3.06,17.53,17.53,0,0,1-6.78,1.16H29.69v15.23H20.35V106.66Zm-2.56,20a19.4,19.4,0,0,0,3.1-.23,7.11,7.11,0,0,0,2.61-.93,4.92,4.92,0,0,0,1.82-1.93,8.2,8.2,0,0,0,0-6.54,5,5,0,0,0-1.82-1.93,7.11,7.11,0,0,0-2.61-.93,20.64,20.64,0,0,0-3.1-.23H29.69v12.72Z"/><path class="cls-1" d="M83.82,106.66,99.7,149.13H90l-3.21-9.46H70.91l-3.33,9.46h-9.4l16.06-42.47Zm.53,26.05L79,117.13h-.12l-5.53,15.58Z"/><path class="cls-1" d="M137.65,118a9.34,9.34,0,0,0-2.09-2.35,9.73,9.73,0,0,0-2.82-1.58,9.86,9.86,0,0,0-3.3-.56,11,11,0,0,0-5.36,1.22,10.08,10.08,0,0,0-3.56,3.27,14.32,14.32,0,0,0-2,4.67,23.55,23.55,0,0,0-.62,5.41,22,22,0,0,0,.62,5.21,14.05,14.05,0,0,0,2,4.55,10.28,10.28,0,0,0,3.56,3.24,11,11,0,0,0,5.36,1.22,8.63,8.63,0,0,0,6.69-2.62,12,12,0,0,0,2.94-6.9h9a21.42,21.42,0,0,1-1.84,7.2,17.2,17.2,0,0,1-3.93,5.47,16.45,16.45,0,0,1-5.71,3.45,21,21,0,0,1-7.19,1.19,21.83,21.83,0,0,1-8.78-1.69,18.94,18.94,0,0,1-6.57-4.67,20.85,20.85,0,0,1-4.1-7,25.71,25.71,0,0,1-1.43-8.66,26.59,26.59,0,0,1,1.43-8.83,21.2,21.2,0,0,1,4.1-7.11,18.91,18.91,0,0,1,6.57-4.76,21.5,21.5,0,0,1,8.78-1.72,21.2,21.2,0,0,1,6.63,1,18,18,0,0,1,5.59,2.94,15.92,15.92,0,0,1,4.08,4.79,17.18,17.18,0,0,1,2,6.54h-9A7.7,7.7,0,0,0,137.65,118Z"/><path class="cls-1" d="M170.84,106.66V123H188v-16.3h9.33v42.47H188V130.81H170.84v18.32H161.5V106.66Z"/><path class="cls-1" d="M244.35,106.66v7.85H221.93v9.1h20.58v7.26H221.93v10.41h22.9v7.85H212.59V106.66Z"/><path class="cls-1" d="M285.4,118a9.34,9.34,0,0,0-2.09-2.35,9.73,9.73,0,0,0-2.82-1.58,9.86,9.86,0,0,0-3.3-.56,11,11,0,0,0-5.36,1.22,10.08,10.08,0,0,0-3.56,3.27,14.32,14.32,0,0,0-2,4.67,23.55,23.55,0,0,0-.62,5.41,22,22,0,0,0,.62,5.21,14.05,14.05,0,0,0,2,4.55,10.28,10.28,0,0,0,3.56,3.24,11,11,0,0,0,5.36,1.22,8.63,8.63,0,0,0,6.69-2.62,12,12,0,0,0,2.94-6.9h9A21.42,21.42,0,0,1,294,140a17.2,17.2,0,0,1-3.93,5.47,16.45,16.45,0,0,1-5.71,3.45,21,21,0,0,1-7.19,1.19,21.83,21.83,0,0,1-8.78-1.69,18.94,18.94,0,0,1-6.57-4.67,20.85,20.85,0,0,1-4.1-7,25.71,25.71,0,0,1-1.43-8.66,26.59,26.59,0,0,1,1.43-8.83,21.2,21.2,0,0,1,4.1-7.11,18.91,18.91,0,0,1,6.57-4.76,21.5,21.5,0,0,1,8.78-1.72,21.2,21.2,0,0,1,6.63,1,18,18,0,0,1,5.59,2.94,15.92,15.92,0,0,1,4.08,4.79,17.18,17.18,0,0,1,2,6.54h-9A7.7,7.7,0,0,0,285.4,118Z"/><path class="cls-1" d="M308.83,119.24a21.06,21.06,0,0,1,4.11-7.11,18.72,18.72,0,0,1,6.57-4.76,23.29,23.29,0,0,1,17.57,0,18.92,18.92,0,0,1,6.55,4.76,21.2,21.2,0,0,1,4.1,7.11,26.59,26.59,0,0,1,1.43,8.83,25.71,25.71,0,0,1-1.43,8.66,20.85,20.85,0,0,1-4.1,7,19,19,0,0,1-6.55,4.67,23.68,23.68,0,0,1-17.57,0,18.76,18.76,0,0,1-6.57-4.67,20.7,20.7,0,0,1-4.11-7,25.71,25.71,0,0,1-1.43-8.66A26.59,26.59,0,0,1,308.83,119.24Zm8.54,14a14,14,0,0,0,2,4.55,10.22,10.22,0,0,0,3.57,3.24,12.36,12.36,0,0,0,10.71,0,10.28,10.28,0,0,0,3.56-3.24,14.05,14.05,0,0,0,2-4.55,22,22,0,0,0,.62-5.21,23.55,23.55,0,0,0-.62-5.41,14.32,14.32,0,0,0-2-4.67,10.08,10.08,0,0,0-3.56-3.27,12.36,12.36,0,0,0-10.71,0,10,10,0,0,0-3.57,3.27,14.3,14.3,0,0,0-2,4.67,23,23,0,0,0-.63,5.41A21.48,21.48,0,0,0,317.37,133.28Z"/><path class="cls-1" d="M388.74,112.67a13.1,13.1,0,0,0-7.7-2.26,13.79,13.79,0,0,0-6.51,1.42,12.86,12.86,0,0,0-4.46,3.84,16.5,16.5,0,0,0-2.59,5.5,24.49,24.49,0,0,0-.83,6.43,27.28,27.28,0,0,0,.83,6.87,16.38,16.38,0,0,0,2.59,5.65,12.75,12.75,0,0,0,4.49,3.83,13.85,13.85,0,0,0,6.54,1.43,12.55,12.55,0,0,0,5-.92,11.22,11.22,0,0,0,3.74-2.56,11.59,11.59,0,0,0,2.47-3.89,15.85,15.85,0,0,0,1.07-4.88H399q-.83,8-5.53,12.49t-12.84,4.46a20.48,20.48,0,0,1-8.63-1.69,17,17,0,0,1-6.13-4.67,20.22,20.22,0,0,1-3.65-7A29.73,29.73,0,0,1,361,128a28.11,28.11,0,0,1,1.31-8.71,21,21,0,0,1,3.83-7.11,18,18,0,0,1,6.31-4.79,20.28,20.28,0,0,1,8.65-1.75,21.73,21.73,0,0,1,6.31.89,16.9,16.9,0,0,1,5.29,2.62,14.85,14.85,0,0,1,3.87,4.31,15.85,15.85,0,0,1,2,6h-5.65A10.5,10.5,0,0,0,388.74,112.67Z"/><path class="cls-1" d="M430.83,106.66l16.59,42.47h-6.24l-4.64-12.79h-18l-4.75,12.79h-5.77l16.53-42.47Zm3.92,24.92-7.08-19.8h-.12l-7.19,19.8Z"/><path class="cls-1" d="M479.87,112.46a12,12,0,0,0-7.23-2,17.86,17.86,0,0,0-3.51.35,9.44,9.44,0,0,0-3.06,1.19,6.27,6.27,0,0,0-2.14,2.23,6.84,6.84,0,0,0-.81,3.48,4.47,4.47,0,0,0,1.16,3.19,8.78,8.78,0,0,0,3.1,2,26.42,26.42,0,0,0,4.37,1.28c1.63.33,3.28.7,5,1.1s3.33.86,5,1.39a16.1,16.1,0,0,1,4.37,2.18,10.37,10.37,0,0,1,3.1,3.45,12.08,12.08,0,0,1-.36,11,12.51,12.51,0,0,1-3.9,3.93,17,17,0,0,1-5.32,2.2,26.1,26.1,0,0,1-5.86.68,25.07,25.07,0,0,1-6.75-.89,16.81,16.81,0,0,1-5.59-2.71,12.83,12.83,0,0,1-3.81-4.64,14.93,14.93,0,0,1-1.39-6.69h5.35a9.63,9.63,0,0,0,1,4.61,9.39,9.39,0,0,0,2.74,3.18,11.34,11.34,0,0,0,3.95,1.85,18.44,18.44,0,0,0,4.64.59,21,21,0,0,0,3.84-.36,11.14,11.14,0,0,0,3.48-1.22,6.87,6.87,0,0,0,2.5-2.35,7,7,0,0,0,1-3.8,5.34,5.34,0,0,0-1.16-3.57,8.56,8.56,0,0,0-3.1-2.23,23.13,23.13,0,0,0-4.37-1.4l-5-1.1c-1.68-.38-3.34-.81-5-1.31a17.8,17.8,0,0,1-4.37-2,8.78,8.78,0,0,1-4.26-8,11,11,0,0,1,4.79-9.43,15.72,15.72,0,0,1,4.94-2.26,22,22,0,0,1,5.68-.74,23,23,0,0,1,6.07.77,13.75,13.75,0,0,1,4.9,2.44,11.74,11.74,0,0,1,3.33,4.19,14.89,14.89,0,0,1,1.34,6h-5.35Q482.69,114.52,479.87,112.46Z"/><path class="cls-1" d="M525.43,112.46a12,12,0,0,0-7.23-2,17.86,17.86,0,0,0-3.51.35,9.44,9.44,0,0,0-3.06,1.19,6.35,6.35,0,0,0-2.14,2.23,6.84,6.84,0,0,0-.8,3.48,4.43,4.43,0,0,0,1.16,3.19,8.64,8.64,0,0,0,3.09,2,26.71,26.71,0,0,0,4.37,1.28c1.63.33,3.28.7,5,1.1s3.34.86,5,1.39a16.4,16.4,0,0,1,4.37,2.18,10.24,10.24,0,0,1,3.09,3.45,12.08,12.08,0,0,1-.36,11,12.58,12.58,0,0,1-3.89,3.93,17.18,17.18,0,0,1-5.33,2.2,26.08,26.08,0,0,1-5.85.68,25.15,25.15,0,0,1-6.76-.89,16.81,16.81,0,0,1-5.59-2.71,12.81,12.81,0,0,1-3.8-4.64,14.8,14.8,0,0,1-1.4-6.69h5.35a9.63,9.63,0,0,0,1,4.61,9.39,9.39,0,0,0,2.74,3.18,11.52,11.52,0,0,0,3.95,1.85,18.5,18.5,0,0,0,4.64.59,21,21,0,0,0,3.84-.36,11,11,0,0,0,3.48-1.22,6.87,6.87,0,0,0,2.5-2.35,7,7,0,0,0,1-3.8,5.34,5.34,0,0,0-1.16-3.57,8.52,8.52,0,0,0-3.09-2.23,23.36,23.36,0,0,0-4.37-1.4l-5-1.1c-1.69-.38-3.34-.81-5-1.31a17.8,17.8,0,0,1-4.37-2,8.78,8.78,0,0,1-4.26-8,11.16,11.16,0,0,1,1.32-5.56,11.36,11.36,0,0,1,3.48-3.87,15.67,15.67,0,0,1,4.93-2.26,22,22,0,0,1,5.68-.74,23,23,0,0,1,6.07.77,13.88,13.88,0,0,1,4.91,2.44,12,12,0,0,1,3.33,4.19,15.06,15.06,0,0,1,1.34,6h-5.36Q528.25,114.52,525.43,112.46Z"/><path class="cls-1" d="M579.05,106.66v4.76H555.38v13.5h22.07v4.76H555.38v14.69h23.85v4.76h-29.5V106.66Z"/><path class="cls-1" d="M598.74,106.66v37.71h22.48v4.76H593.09V106.66Z"/><path class="cls-1" d="M638.83,106.66v37.71h22.48v4.76H633.18V106.66Z"/><path class="cls-1" d="M691.06,106.66l16.59,42.47h-6.24l-4.65-12.79h-18L674,149.13h-5.77l16.54-42.47ZM695,131.58l-7.08-19.8h-.12l-7.19,19.8Z"/><polygon class="cls-1" points="719.83 169.05 8.17 168.09 8.17 166.95 719.83 167.91 719.83 169.05"/><path class="cls-1" d="M376.3,7.47c8.08,0,14.67,4.93,14.67,11v19c0,6-6.59,11-14.67,11H328.19V61c0,1.18-1.3,2.08-2.79,2.08s-2.78-.9-2.78-2.08V18.45c0-6,6.59-11,14.67-11ZM328.19,44.23H376.3c5.11,0,9.19-3.06,9.19-6.81v-19c0-3.75-4.08-6.81-9.19-6.81h-39c-5,0-9.1,3.06-9.1,6.81Z"/><path class="cls-1" d="M403,22c1.36,0,2.4.81,2.4,1.86a2.19,2.19,0,0,1-2.4,1.86H364.23c-4.32,0-7.84,2.72-7.84,6.06v30c0,3.34,3.52,6.07,7.84,6.07H403a2.18,2.18,0,0,1,2.4,1.86c0,1-1,1.85-2.4,1.85H364.23c-7,0-12.64-4.39-12.64-9.78v-30c0-5.38,5.68-9.78,12.64-9.78Z"/><path class="cls-1" d="M176.67,199.3a7.37,7.37,0,0,1,1.44-2.59,6.8,6.8,0,0,1,2.37-1.73,8,8,0,0,1,3.25-.63A7.87,7.87,0,0,1,187,195a6.85,6.85,0,0,1,2.36,1.73,7.37,7.37,0,0,1,1.44,2.59,10.36,10.36,0,0,1,.48,3.2,10.19,10.19,0,0,1-.48,3.18,7.19,7.19,0,0,1-1.44,2.57A6.82,6.82,0,0,1,187,210a8,8,0,0,1-3.26.61,8.12,8.12,0,0,1-3.25-.61,6.77,6.77,0,0,1-2.37-1.72,7.19,7.19,0,0,1-1.44-2.57,10.19,10.19,0,0,1-.48-3.18A10.36,10.36,0,0,1,176.67,199.3Zm2.6,5.71a5.23,5.23,0,0,0,1,1.83,4.52,4.52,0,0,0,1.55,1.13,4.61,4.61,0,0,0,5.31-1.13,5.4,5.4,0,0,0,1-1.83,8.48,8.48,0,0,0,0-5,5.59,5.59,0,0,0-1-1.85,4.52,4.52,0,0,0-1.55-1.14,4.73,4.73,0,0,0-3.76,0,4.43,4.43,0,0,0-1.55,1.14,5.42,5.42,0,0,0-1,1.85,8.48,8.48,0,0,0,0,5Z"/><path class="cls-1" d="M212.4,210.25v-2.1h-.06a3.74,3.74,0,0,1-2,1.86,7.56,7.56,0,0,1-3,.57,7,7,0,0,1-3.14-.66,6.49,6.49,0,0,1-2.23-1.77,7.75,7.75,0,0,1-1.33-2.59,10.6,10.6,0,0,1-.45-3.12,11,11,0,0,1,.43-3.13,7.22,7.22,0,0,1,1.33-2.57,6.28,6.28,0,0,1,2.22-1.74,7.08,7.08,0,0,1,3.11-.65,7.55,7.55,0,0,1,1.29.12,6.57,6.57,0,0,1,1.38.41,5.91,5.91,0,0,1,1.31.75,4.14,4.14,0,0,1,1,1.16h.06v-8H215v21.46Zm-9.18-5.51a5.68,5.68,0,0,0,.87,1.84,4.29,4.29,0,0,0,1.5,1.3,4.58,4.58,0,0,0,2.15.48,4.2,4.2,0,0,0,3.66-1.85,5.42,5.42,0,0,0,.83-1.88,9,9,0,0,0,0-4.34,5.49,5.49,0,0,0-.86-1.88,4.4,4.4,0,0,0-1.52-1.31,4.73,4.73,0,0,0-2.25-.49,4.44,4.44,0,0,0-2.2.51,4.06,4.06,0,0,0-1.44,1.35,5.87,5.87,0,0,0-.78,1.92,10.36,10.36,0,0,0-.24,2.23A7.64,7.64,0,0,0,203.22,204.74Z"/><path class="cls-1" d="M225.32,199.3a7.37,7.37,0,0,1,1.44-2.59,6.74,6.74,0,0,1,2.38-1.73,8.7,8.7,0,0,1,6.5,0,6.85,6.85,0,0,1,2.36,1.73,7.37,7.37,0,0,1,1.44,2.59,10.36,10.36,0,0,1,.48,3.2,10.19,10.19,0,0,1-.48,3.18,7.19,7.19,0,0,1-1.44,2.57,6.82,6.82,0,0,1-2.36,1.72,9,9,0,0,1-6.5,0,6.72,6.72,0,0,1-2.38-1.72,7.19,7.19,0,0,1-1.44-2.57,10.19,10.19,0,0,1-.48-3.18A10.36,10.36,0,0,1,225.32,199.3Zm2.6,5.71a5.1,5.1,0,0,0,1,1.83A4.49,4.49,0,0,0,230.5,208a4.73,4.73,0,0,0,3.76,0,4.52,4.52,0,0,0,1.55-1.13,5.23,5.23,0,0,0,1-1.83,8.48,8.48,0,0,0,0-5,5.42,5.42,0,0,0-1-1.85,4.43,4.43,0,0,0-1.55-1.14,4.73,4.73,0,0,0-3.76,0,4.39,4.39,0,0,0-1.54,1.14,5.28,5.28,0,0,0-1,1.85,8.48,8.48,0,0,0,0,5Z"/><path class="cls-1" d="M252.12,194.71v2.47h.06a5.39,5.39,0,0,1,5.05-2.83,6.75,6.75,0,0,1,2.56.42,4.17,4.17,0,0,1,2.54,3,9.65,9.65,0,0,1,.25,2.3v10.22H260V199.73a3,3,0,0,0-.85-2.28,3.11,3.11,0,0,0-2.31-.84,5.22,5.22,0,0,0-2,.36,3.78,3.78,0,0,0-1.42,1,4.27,4.27,0,0,0-.86,1.55,6.27,6.27,0,0,0-.29,1.94v8.77h-2.55V194.71Z"/><path class="cls-1" d="M279.86,194.71V197h-3.09v9.65a2.87,2.87,0,0,0,.07.72.7.7,0,0,0,.29.42,1.24,1.24,0,0,0,.58.19,8.43,8.43,0,0,0,1,.05h1.17v2.25h-1.95a9.26,9.26,0,0,1-1.7-.13,2.6,2.6,0,0,1-1.14-.5,2.12,2.12,0,0,1-.65-1,5.92,5.92,0,0,1-.21-1.75V197h-2.64v-2.26h2.64v-4.65h2.56v4.65Z"/><path class="cls-1" d="M289.12,199.3a7.37,7.37,0,0,1,1.44-2.59,6.8,6.8,0,0,1,2.37-1.73,8.72,8.72,0,0,1,6.51,0,6.85,6.85,0,0,1,2.36,1.73,7.37,7.37,0,0,1,1.44,2.59,10.36,10.36,0,0,1,.48,3.2,10.19,10.19,0,0,1-.48,3.18,7.19,7.19,0,0,1-1.44,2.57,6.82,6.82,0,0,1-2.36,1.72,9,9,0,0,1-6.51,0,6.77,6.77,0,0,1-2.37-1.72,7.19,7.19,0,0,1-1.44-2.57,9.9,9.9,0,0,1-.49-3.18A10.07,10.07,0,0,1,289.12,199.3Zm2.59,5.71a5.41,5.41,0,0,0,1,1.83A4.52,4.52,0,0,0,294.3,208a4.73,4.73,0,0,0,3.76,0,4.49,4.49,0,0,0,1.54-1.13,5.1,5.1,0,0,0,1-1.83,8.48,8.48,0,0,0,0-5,5.28,5.28,0,0,0-1-1.85,4.39,4.39,0,0,0-1.54-1.14,4.73,4.73,0,0,0-3.76,0,4.43,4.43,0,0,0-1.55,1.14,5.61,5.61,0,0,0-1,1.85,8.7,8.7,0,0,0,0,5Z"/><path class="cls-1" d="M316.22,188.79v21.46h-2.55V188.79Z"/><path class="cls-1" d="M326.62,199.3a7.37,7.37,0,0,1,1.44-2.59,6.74,6.74,0,0,1,2.38-1.73,8.7,8.7,0,0,1,6.5,0,6.85,6.85,0,0,1,2.36,1.73,7.37,7.37,0,0,1,1.44,2.59,10.36,10.36,0,0,1,.49,3.2,10.19,10.19,0,0,1-.49,3.18,7.19,7.19,0,0,1-1.44,2.57,6.82,6.82,0,0,1-2.36,1.72,9,9,0,0,1-6.5,0,6.72,6.72,0,0,1-2.38-1.72,7.19,7.19,0,0,1-1.44-2.57,10.19,10.19,0,0,1-.48-3.18A10.36,10.36,0,0,1,326.62,199.3Zm2.6,5.71a5.1,5.1,0,0,0,1,1.83A4.49,4.49,0,0,0,331.8,208a4.73,4.73,0,0,0,3.76,0,4.52,4.52,0,0,0,1.55-1.13,5.41,5.41,0,0,0,1-1.83,8.7,8.7,0,0,0,0-5,5.61,5.61,0,0,0-1-1.85,4.43,4.43,0,0,0-1.55-1.14,4.73,4.73,0,0,0-3.76,0,4.39,4.39,0,0,0-1.54,1.14,5.28,5.28,0,0,0-1,1.85,8.48,8.48,0,0,0,0,5Z"/><path class="cls-1" d="M362.68,214.64q-1.74,1.89-5.47,1.89a10.6,10.6,0,0,1-2.21-.24,6.76,6.76,0,0,1-2-.78,4.77,4.77,0,0,1-1.52-1.41,4,4,0,0,1-.66-2.14h2.55a1.92,1.92,0,0,0,.44,1.18,3.17,3.17,0,0,0,1,.78,4.82,4.82,0,0,0,1.28.43,6.9,6.9,0,0,0,1.32.14,4.8,4.8,0,0,0,2.14-.44,4,4,0,0,0,1.44-1.2,5,5,0,0,0,.82-1.85,10.3,10.3,0,0,0,.26-2.37v-1H362a4.24,4.24,0,0,1-2,2.11,6.1,6.1,0,0,1-2.84.68,6.83,6.83,0,0,1-3-.63,6.3,6.3,0,0,1-2.17-1.7,7.4,7.4,0,0,1-1.31-2.49,10.65,10.65,0,0,1-.43-3,11.82,11.82,0,0,1,.36-2.84,7.78,7.78,0,0,1,1.2-2.65,6.58,6.58,0,0,1,2.22-1.95,7,7,0,0,1,3.4-.77,5.8,5.8,0,0,1,2.71.65,4.55,4.55,0,0,1,1.92,1.94h0v-2.23h2.4v14.22C364.42,211.47,363.84,213.38,362.68,214.64Zm-3.26-7a4.2,4.2,0,0,0,1.43-1.38,6.33,6.33,0,0,0,.79-1.94,9.38,9.38,0,0,0,.26-2.16,8.44,8.44,0,0,0-.24-2,5.55,5.55,0,0,0-.77-1.79,3.92,3.92,0,0,0-1.37-1.28,4,4,0,0,0-2-.48,4.4,4.4,0,0,0-2.1.46,4.11,4.11,0,0,0-1.43,1.25,5.28,5.28,0,0,0-.81,1.8,8.83,8.83,0,0,0-.26,2.14,10.68,10.68,0,0,0,.21,2.1,5.79,5.79,0,0,0,.73,1.91,4.05,4.05,0,0,0,1.35,1.38,3.89,3.89,0,0,0,2.1.53A4.15,4.15,0,0,0,359.42,207.65Z"/><path class="cls-1" d="M375.21,191.92v-3.13h2.56v3.13Zm2.56,2.79v15.54h-2.56V194.71Z"/><path class="cls-1" d="M402.29,210.18a3.54,3.54,0,0,1-1.84.4,2.18,2.18,0,0,1-1.57-.56,2.4,2.4,0,0,1-.59-1.81,6.1,6.1,0,0,1-2.45,1.81,8.44,8.44,0,0,1-5,.32,4.66,4.66,0,0,1-1.64-.75,3.6,3.6,0,0,1-1.09-1.34,4.48,4.48,0,0,1-.41-2,4.56,4.56,0,0,1,.45-2.16,4,4,0,0,1,1.19-1.37,5.42,5.42,0,0,1,1.68-.79c.63-.18,1.28-.33,1.94-.45s1.37-.25,2-.32a11.43,11.43,0,0,0,1.67-.3,2.77,2.77,0,0,0,1.14-.57,1.4,1.4,0,0,0,.42-1.1,2.54,2.54,0,0,0-.32-1.35,2.16,2.16,0,0,0-.81-.78,3.29,3.29,0,0,0-1.11-.36,8.45,8.45,0,0,0-1.22-.09,5.39,5.39,0,0,0-2.7.61,2.62,2.62,0,0,0-1.17,2.33h-2.56a5.51,5.51,0,0,1,.6-2.43,4.5,4.5,0,0,1,1.45-1.61,6.19,6.19,0,0,1,2.06-.89,10.75,10.75,0,0,1,2.47-.27,14.48,14.48,0,0,1,2.09.15,5.48,5.48,0,0,1,1.88.62,3.58,3.58,0,0,1,1.35,1.3,4.18,4.18,0,0,1,.51,2.19v8a5.9,5.9,0,0,0,.11,1.32c.07.28.3.42.71.42a2.53,2.53,0,0,0,.78-.15Zm-4.15-8a3.17,3.17,0,0,1-1.26.52c-.52.11-1.07.2-1.64.27l-1.73.24a6.34,6.34,0,0,0-1.56.44,2.78,2.78,0,0,0-1.13.86,2.38,2.38,0,0,0-.43,1.51,2.07,2.07,0,0,0,.25,1.07,2.14,2.14,0,0,0,.66.71,2.8,2.8,0,0,0,.95.39,5.24,5.24,0,0,0,1.14.12,6.13,6.13,0,0,0,2.17-.35,4.54,4.54,0,0,0,1.47-.87,3.43,3.43,0,0,0,.84-1.14,2.91,2.91,0,0,0,.27-1.16Z"/><path class="cls-1" d="M437.93,210.25v-2.1h-.06a3.74,3.74,0,0,1-2,1.86,7.56,7.56,0,0,1-3,.57,7,7,0,0,1-3.14-.66,6.49,6.49,0,0,1-2.23-1.77,7.75,7.75,0,0,1-1.33-2.59,10.6,10.6,0,0,1-.45-3.12,11,11,0,0,1,.43-3.13,7.22,7.22,0,0,1,1.33-2.57,6.28,6.28,0,0,1,2.22-1.74,7.08,7.08,0,0,1,3.11-.65,7.55,7.55,0,0,1,1.29.12,6.57,6.57,0,0,1,1.38.41,5.91,5.91,0,0,1,1.31.75,4.14,4.14,0,0,1,1,1.16h.06v-8h2.55v21.46Zm-9.18-5.51a5.68,5.68,0,0,0,.87,1.84,4.29,4.29,0,0,0,1.5,1.3,4.58,4.58,0,0,0,2.15.48,4.38,4.38,0,0,0,2.19-.51,4.53,4.53,0,0,0,1.48-1.34,5.6,5.6,0,0,0,.82-1.88,9,9,0,0,0,0-4.34,5.49,5.49,0,0,0-.86-1.88,4.4,4.4,0,0,0-1.52-1.31,4.73,4.73,0,0,0-2.25-.49,4.44,4.44,0,0,0-2.2.51,4.06,4.06,0,0,0-1.44,1.35,5.87,5.87,0,0,0-.78,1.92,10.36,10.36,0,0,0-.24,2.23A8,8,0,0,0,428.75,204.74Z"/><path class="cls-1" d="M451.36,191.92v-3.13h2.55v3.13Zm2.55,2.79v15.54h-2.55V194.71Z"/><path class="cls-1" d="M476.33,214.64q-1.74,1.89-5.47,1.89a10.6,10.6,0,0,1-2.21-.24,6.76,6.76,0,0,1-2-.78,4.77,4.77,0,0,1-1.52-1.41,4,4,0,0,1-.66-2.14H467a1.85,1.85,0,0,0,.43,1.18,3.17,3.17,0,0,0,1,.78,4.82,4.82,0,0,0,1.28.43,6.9,6.9,0,0,0,1.32.14,4.8,4.8,0,0,0,2.14-.44,4,4,0,0,0,1.44-1.2,4.82,4.82,0,0,0,.82-1.85,10.3,10.3,0,0,0,.26-2.37v-1h-.06a4.24,4.24,0,0,1-2,2.11,6.1,6.1,0,0,1-2.84.68,6.83,6.83,0,0,1-3-.63,6.39,6.39,0,0,1-2.17-1.7,7.21,7.21,0,0,1-1.3-2.49,10.31,10.31,0,0,1-.44-3,11.82,11.82,0,0,1,.36-2.84,7.78,7.78,0,0,1,1.2-2.65,6.52,6.52,0,0,1,2.23-1.95,6.91,6.91,0,0,1,3.39-.77,5.8,5.8,0,0,1,2.71.65,4.55,4.55,0,0,1,1.92,1.94h0v-2.23h2.4v14.22C478.07,211.47,477.49,213.38,476.33,214.64Zm-3.26-7a4.2,4.2,0,0,0,1.43-1.38,6.6,6.6,0,0,0,.8-1.94,10,10,0,0,0,.25-2.16,8.44,8.44,0,0,0-.24-2,5.55,5.55,0,0,0-.77-1.79,4,4,0,0,0-1.36-1.28,4.09,4.09,0,0,0-2.05-.48,4.4,4.4,0,0,0-2.1.46,4.11,4.11,0,0,0-1.43,1.25,5.28,5.28,0,0,0-.81,1.8,8.83,8.83,0,0,0-.26,2.14,11.5,11.5,0,0,0,.21,2.1,6,6,0,0,0,.73,1.91,4.05,4.05,0,0,0,1.35,1.38,3.89,3.89,0,0,0,2.1.53A4.15,4.15,0,0,0,473.07,207.65Z"/><path class="cls-1" d="M488.86,191.92v-3.13h2.56v3.13Zm2.56,2.79v15.54h-2.56V194.71Z"/><path class="cls-1" d="M508.82,194.71V197h-3.1v9.65a2.81,2.81,0,0,0,.08.72.69.69,0,0,0,.28.42,1.28,1.28,0,0,0,.59.19,8.24,8.24,0,0,0,1,.05h1.18v2.25h-2a9.26,9.26,0,0,1-1.7-.13,2.6,2.6,0,0,1-1.14-.5,2.11,2.11,0,0,1-.64-1,5.92,5.92,0,0,1-.21-1.75V197h-2.65v-2.26h2.65v-4.65h2.55v4.65Z"/><path class="cls-1" d="M532.2,210.18a3.56,3.56,0,0,1-1.84.4,2.23,2.23,0,0,1-1.58-.56,2.4,2.4,0,0,1-.58-1.81,6.1,6.1,0,0,1-2.45,1.81,8.44,8.44,0,0,1-5,.32,4.66,4.66,0,0,1-1.64-.75,3.6,3.6,0,0,1-1.09-1.34,4.48,4.48,0,0,1-.41-2,4.56,4.56,0,0,1,.45-2.16,4,4,0,0,1,1.19-1.37,5.42,5.42,0,0,1,1.68-.79c.63-.18,1.28-.33,1.94-.45s1.37-.25,2-.32a11.43,11.43,0,0,0,1.67-.3,2.77,2.77,0,0,0,1.14-.57,1.4,1.4,0,0,0,.42-1.1,2.54,2.54,0,0,0-.32-1.35,2.16,2.16,0,0,0-.81-.78,3.29,3.29,0,0,0-1.11-.36,8.45,8.45,0,0,0-1.22-.09,5.39,5.39,0,0,0-2.7.61,2.62,2.62,0,0,0-1.17,2.33h-2.56a5.51,5.51,0,0,1,.6-2.43,4.57,4.57,0,0,1,1.44-1.61,6.28,6.28,0,0,1,2.06-.89,10.9,10.9,0,0,1,2.48-.27,14.59,14.59,0,0,1,2.09.15,5.48,5.48,0,0,1,1.88.62,3.58,3.58,0,0,1,1.35,1.3,4.18,4.18,0,0,1,.51,2.19v8a5.9,5.9,0,0,0,.11,1.32c.07.28.3.42.7.42a2.64,2.64,0,0,0,.79-.15Zm-4.15-8a3.17,3.17,0,0,1-1.26.52c-.52.11-1.07.2-1.64.27l-1.73.24a6.34,6.34,0,0,0-1.56.44,2.78,2.78,0,0,0-1.13.86,2.38,2.38,0,0,0-.43,1.51,2.07,2.07,0,0,0,.25,1.07,2.14,2.14,0,0,0,.66.71,2.8,2.8,0,0,0,.95.39,5.24,5.24,0,0,0,1.14.12,6,6,0,0,0,2.16-.35,4.71,4.71,0,0,0,1.48-.87,3.43,3.43,0,0,0,.84-1.14,2.91,2.91,0,0,0,.27-1.16Z"/><path class="cls-1" d="M544.07,188.79v21.46h-2.56V188.79Z"/></svg>